<svg xmlns="http://www.w3.org/2000/svg" viewBox="35 356.8 140 129.1" height="50" width="54" style="margin: 5px 3px 0 0;overflow: hidden;cursor:pointer;">
	<g id="logo">
		<path id="tt-globe-yellow" style="fill: rgb(43, 244, 95);" d="M67.9,471.9c8.5,0,15.3-6.9,15.3-15.3c0-8.5-6.9-15.3-15.3-15.3   c-8.5,0-15.3,6.9-15.3,15.3C52.6,465,59.4,471.9,67.9,471.9L67.9,471.9z M67.9,466.5c-5.5,0-10-4.5-10-10s4.5-10,10-10   s10,4.5,10,10C77.9,462.1,73.4,466.5,67.9,466.5z"/>
		<path id="tt-globe-green" style="fill:#73B72B;" d="M98.4,459.2c14.5,0,26.3-11.8,26.3-26.3c0-14.5-11.8-26.3-26.3-26.3   s-26.3,11.8-26.3,26.3c0,2.4,0.3,4.6,0.9,6.8c7,2.1,12.1,8.5,12.4,16.1C89.2,458,93.7,459.2,98.4,459.2L98.4,459.2z M98.4,450.1   c-9.5,0-17.2-7.7-17.2-17.2s7.7-17.2,17.2-17.2s17.2,7.7,17.2,17.2C115.5,442.4,107.8,450.1,98.4,450.1z"/>
		<path id="tt-globe-blue" style="fill:#4E91CE;" d="M100.1,404c0.4-1.9,0.6-3.9,0.6-5.9c-0.1-17.3-14.1-31.3-31.4-31.3   S38,380.8,38,398.1c0,17,13.6,30.9,30.5,31.3c0.5-4,1.8-7.7,3.7-11.1c-0.9,0.1-1.9,0.2-2.9,0.2c-11.3,0-20.5-9.2-20.5-20.5   c0-11.3,9.2-20.3,20.5-20.3s20.5,9.1,20.5,20.4c0,2.5-0.5,4.9-1.3,7.1c2.8-0.9,5.8-1.4,8.9-1.4C98.3,403.9,99.2,403.9,100.1,404z"/>
		<path id="tt-globe-red" style="fill:#E52D12;" d="M116.7,407.2c10.3,0,18.7-8.4,18.7-18.7c0-10.3-8.4-18.7-18.7-18.7   c-7.8,0-14.4,4.7-17.3,11.4c2.9,5,4.6,10.8,4.6,16.9c0,1.3-0.1,2.7-0.2,4C107.1,405.3,111.7,407.2,116.7,407.2L116.7,407.2z    M116.7,400.7c-6.8,0-12.2-5.5-12.2-12.2c0-6.8,5.5-12.2,12.2-12.2c6.8,0,12.2,5.5,12.2,12.2C128.9,395.3,123.4,400.7,116.7,400.7z   "/>
		
	</g>
</svg>